<svg width="56" height="56" viewBox="0 0 56 56" fill="none" xmlns="http://www.w3.org/2000/svg">
<path d="M27.9666 0C31.8379 0 35.4756 0.734207 38.8796 2.20262C42.2837 3.67104 45.2539 5.67342 47.7902 8.20977C50.3266 10.7461 52.329 13.7052 53.7974 17.087C55.2658 20.4688 56 24.0954 56 27.9666C56 31.8379 55.2658 35.4756 53.7974 38.8796C52.329 42.2837 50.3266 45.2539 47.7902 47.7902C45.2539 50.3266 42.2837 52.329 38.8796 53.7974C35.4756 55.2658 31.8379 56 27.9666 56C24.0954 56 20.4688 55.2658 17.087 53.7974C13.7052 52.329 10.7461 50.3266 8.20977 47.7902C5.67342 45.2539 3.67104 42.2837 2.20262 38.8796C0.734207 35.4756 0 31.8379 0 27.9666C0 24.0954 0.734207 20.4688 2.20262 17.087C3.67104 13.7052 5.67342 10.7461 8.20977 8.20977C10.7461 5.67342 13.7052 3.67104 17.087 2.20262C20.4688 0.734207 24.0954 0 27.9666 0ZM38.5125 12.2145H32.5721C31.4152 12.2145 30.3472 12.4148 29.3683 12.8153C28.3894 13.2157 27.5328 13.7497 26.7986 14.4172C26.0644 15.0846 25.497 15.8411 25.0965 16.6865C24.6961 17.532 24.4958 18.3774 24.4958 19.2229V22.7604H19.2229V29.702H24.4958V43.7187H31.5042V29.702H36.7104V22.7604H31.5042V20.9583C31.5042 20.4243 31.7155 20.0016 32.1383 19.6901C32.561 19.3786 32.9281 19.2229 33.2396 19.2229H38.5125V12.2145Z" fill="black"/>
</svg>
