<svg width="24" height="20" viewBox="0 0 24 20" fill="none" xmlns="http://www.w3.org/2000/svg">
<path d="M21 5.71429C22.6568 5.71429 24 4.4351 24 2.85714C24 1.27919 22.6568 0 21 0C19.3432 0 18 1.27919 18 2.85714C18 4.4351 19.3432 5.71429 21 5.71429Z" fill="black"/>
<path d="M21 5.71429C22.6568 5.71429 24 4.4351 24 2.85714C24 1.27919 22.6568 0 21 0C19.3432 0 18 1.27919 18 2.85714C18 4.4351 19.3432 5.71429 21 5.71429Z" fill="black"/>
<path d="M22.464 7.21144C21.624 7.46287 20.7 7.50858 19.74 7.28001C18.132 6.88001 16.824 5.65716 16.38 4.12573C16.164 3.38287 16.152 2.65144 16.284 1.98858C16.44 1.25716 15.9 0.571442 15.132 0.571442H6C2.4 0.571442 0 2.28573 0 6.28573V14.2857C0 18.2857 2.4 20 6 20H18C21.6 20 24 18.2857 24 14.2857V8.29716C24 7.54287 23.232 6.97144 22.464 7.21144ZM16.224 9.3143L14.808 10.3886C14.016 10.9943 13.008 11.2914 12 11.2914C10.992 11.2914 9.972 10.9943 9.192 10.3886L5.436 7.53144C5.052 7.2343 4.992 6.68573 5.292 6.32001C5.604 5.9543 6.168 5.88573 6.552 6.18287L10.308 9.04001C11.22 9.73716 12.768 9.73716 13.68 9.04001L15.096 7.96573C15.48 7.66859 16.056 7.72573 16.356 8.10287C16.668 8.46859 16.608 9.01716 16.224 9.3143Z" fill="black"/>
</svg>
