<svg width="56" height="56" viewBox="0 0 56 56" fill="none" xmlns="http://www.w3.org/2000/svg">
<path d="M27.6989 34.1888C26.8515 34.1888 26.0597 34.0327 25.3238 33.7204C24.5878 33.4082 23.9411 32.9733 23.3835 32.4158C22.826 31.8582 22.3911 31.2003 22.0789 30.4421C21.7666 29.6838 21.6105 28.8809 21.6105 28.0335C21.6105 27.186 21.7666 26.3943 22.0789 25.6583C22.3911 24.9223 22.826 24.2756 23.3835 23.718C23.9411 23.1605 24.5878 22.7256 25.3238 22.4134C26.0597 22.1012 26.8515 21.945 27.6989 21.945C29.3939 21.945 30.8323 22.536 32.0143 23.718C33.1963 24.9 33.7873 26.3385 33.7873 28.0335C33.7873 28.8809 33.6312 29.6838 33.319 30.4421C33.0068 31.2003 32.5719 31.8582 32.0143 32.4158C31.4568 32.9733 30.81 33.4082 30.0741 33.7204C29.3381 34.0327 28.5464 34.1888 27.6989 34.1888ZM37.4671 28.0335C37.4671 27.632 37.4448 27.2194 37.4002 26.7957C37.3556 26.372 37.2887 25.9817 37.1995 25.6249H39.9427V39.0729C39.9427 39.4297 39.8311 39.7196 39.6081 39.9427C39.3851 40.1657 39.0952 40.2772 38.7384 40.2772H16.6595C16.3027 40.2772 16.0127 40.1657 15.7897 39.9427C15.5667 39.7196 15.4552 39.4297 15.4552 39.0729V25.6249H18.1983C18.1091 25.9817 18.0422 26.372 17.9976 26.7957C17.953 27.2194 17.9307 27.632 17.9307 28.0335C17.9307 29.3716 18.1872 30.6428 18.7001 31.8471C19.2131 33.0514 19.9044 34.0996 20.7742 34.9916C21.644 35.8837 22.681 36.5862 23.8853 37.0992C25.0896 37.6121 26.3608 37.8686 27.6989 37.8686C29.037 37.8686 30.3082 37.6121 31.5125 37.0992C32.7168 36.5862 33.7539 35.8837 34.6237 34.9916C35.4934 34.0996 36.1848 33.0514 36.6977 31.8471C37.2107 30.6428 37.4671 29.3716 37.4671 28.0335ZM27.9665 0C31.8471 0 35.4823 0.735962 38.8722 2.20789C42.262 3.67981 45.2282 5.67583 47.7706 8.19594C50.313 10.7161 52.3202 13.671 53.7921 17.0609C55.264 20.4508 56 24.086 56 27.9665C56 31.8471 55.264 35.4823 53.7921 38.8722C52.3202 42.262 50.313 45.2282 47.7706 47.7706C45.2282 50.313 42.262 52.3202 38.8722 53.7921C35.4823 55.264 31.8471 56 27.9665 56C24.086 56 20.4508 55.264 17.0609 53.7921C13.671 52.3202 10.7161 50.313 8.19594 47.7706C5.67583 45.2282 3.67981 42.262 2.20789 38.8722C0.735962 35.4823 0 31.8471 0 27.9665C0 24.086 0.735962 20.4508 2.20789 17.0609C3.67981 13.671 5.67583 10.7161 8.19594 8.19594C10.7161 5.67583 13.671 3.67981 17.0609 2.20789C20.4508 0.735962 24.086 0 27.9665 0ZM43.6225 15.7897C43.6225 14.7638 43.2656 13.8941 42.552 13.1804C41.8383 12.4667 40.9685 12.1099 39.9427 12.1099H15.4552C14.4293 12.1099 13.5595 12.4667 12.8459 13.1804C12.1322 13.8941 11.7754 14.7638 11.7754 15.7897V40.2772C11.7754 41.3031 12.1322 42.1728 12.8459 42.8865C13.5595 43.6002 14.4293 43.957 15.4552 43.957H39.9427C40.9685 43.957 41.8383 43.6002 42.552 42.8865C43.2656 42.1728 43.6225 41.3031 43.6225 40.2772V15.7897ZM38.7384 15.7897C39.0952 15.7897 39.3851 15.9124 39.6081 16.1577C39.8311 16.403 39.9427 16.7041 39.9427 17.0609V20.7407C39.9427 21.0976 39.8311 21.3875 39.6081 21.6105C39.3851 21.8335 39.0952 21.945 38.7384 21.945H35.0585C34.7017 21.945 34.4006 21.8335 34.1553 21.6105C33.91 21.3875 33.7873 21.0976 33.7873 20.7407V17.0609C33.7873 16.7041 33.91 16.403 34.1553 16.1577C34.4006 15.9124 34.7017 15.7897 35.0585 15.7897H38.7384Z" fill="black"/>
</svg>
